ply
format ascii 1.0
element vertex 726
property float x
property float y
property float z
element face 1200
property list uchar int vertex_indices
end_header
0 0 0
0 0 1
0 0 2
0 0 3
0 0 4
0 0 5
0 0 6
0 0 7
0 0 8
0 0 9
0 0 10
0 1 0
0 1 1
0 1 2
0 1 3
0 1 4
0 1 5
0 1 6
0 1 7
0 1 8
0 1 9
0 1 10
0 2 0
0 2 1
0 2 2
0 2 3
0 2 4
0 2 5
0 2 6
0 2 7
0 2 8
0 2 9
0 2 10
0 3 0
0 3 1
0 3 2
0 3 3
0 3 4
0 3 5
0 3 6
0 3 7
0 3 8
0 3 9
0 3 10
0 4 0
0 4 1
0 4 2
0 4 3
0 4 4
0 4 5
0 4 6
0 4 7
0 4 8
0 4 9
0 4 10
0 5 0
0 5 1
0 5 2
0 5 3
0 5 4
0 5 5
0 5 6
0 5 7
0 5 8
0 5 9
0 5 10
0 6 0
0 6 1
0 6 2
0 6 3
0 6 4
0 6 5
0 6 6
0 6 7
0 6 8
0 6 9
0 6 10
0 7 0
0 7 1
0 7 2
0 7 3
0 7 4
0 7 5
0 7 6
0 7 7
0 7 8
0 7 9
0 7 10
0 8 0
0 8 1
0 8 2
0 8 3
0 8 4
0 8 5
0 8 6
0 8 7
0 8 8
0 8 9
0 8 10
0 9 0
0 9 1
0 9 2
0 9 3
0 9 4
0 9 5
0 9 6
0 9 7
0 9 8
0 9 9
0 9 10
0 10 0
0 10 1
0 10 2
0 10 3
0 10 4
0 10 5
0 10 6
0 10 7
0 10 8
0 10 9
0 10 10
10 0 0
10 0 1
10 0 2
10 0 3
10 0 4
10 0 5
10 0 6
10 0 7
10 0 8
10 0 9
10 0 10
10 1 0
10 1 1
10 1 2
10 1 3
10 1 4
10 1 5
10 1 6
10 1 7
10 1 8
10 1 9
10 1 10
10 2 0
10 2 1
10 2 2
10 2 3
10 2 4
10 2 5
10 2 6
10 2 7
10 2 8
10 2 9
10 2 10
10 3 0
10 3 1
10 3 2
10 3 3
10 3 4
10 3 5
10 3 6
10 3 7
10 3 8
10 3 9
10 3 10
10 4 0
10 4 1
10 4 2
10 4 3
10 4 4
10 4 5
10 4 6
10 4 7
10 4 8
10 4 9
10 4 10
10 5 0
10 5 1
10 5 2
10 5 3
10 5 4
10 5 5
10 5 6
10 5 7
10 5 8
10 5 9
10 5 10
10 6 0
10 6 1
10 6 2
10 6 3
10 6 4
10 6 5
10 6 6
10 6 7
10 6 8
10 6 9
10 6 10
10 7 0
10 7 1
10 7 2
10 7 3
10 7 4
10 7 5
10 7 6
10 7 7
10 7 8
10 7 9
10 7 10
10 8 0
10 8 1
10 8 2
10 8 3
10 8 4
10 8 5
10 8 6
10 8 7
10 8 8
10 8 9
10 8 10
10 9 0
10 9 1
10 9 2
10 9 3
10 9 4
10 9 5
10 9 6
10 9 7
10 9 8
10 9 9
10 9 10
10 10 0
10 10 1
10 10 2
10 10 3
10 10 4
10 10 5
10 10 6
10 10 7
10 10 8
10 10 9
10 10 10
0 0 0
0 0 1
0 0 2
0 0 3
0 0 4
0 0 5
0 0 6
0 0 7
0 0 8
0 0 9
0 0 10
1 0 0
1 0 1
1 0 2
1 0 3
1 0 4
1 0 5
1 0 6
1 0 7
1 0 8
1 0 9
1 0 10
2 0 0
2 0 1
2 0 2
2 0 3
2 0 4
2 0 5
2 0 6
2 0 7
2 0 8
2 0 9
2 0 10
3 0 0
3 0 1
3 0 2
3 0 3
3 0 4
3 0 5
3 0 6
3 0 7
3 0 8
3 0 9
3 0 10
4 0 0
4 0 1
4 0 2
4 0 3
4 0 4
4 0 5
4 0 6
4 0 7
4 0 8
4 0 9
4 0 10
5 0 0
5 0 1
5 0 2
5 0 3
5 0 4
5 0 5
5 0 6
5 0 7
5 0 8
5 0 9
5 0 10
6 0 0
6 0 1
6 0 2
6 0 3
6 0 4
6 0 5
6 0 6
6 0 7
6 0 8
6 0 9
6 0 10
7 0 0
7 0 1
7 0 2
7 0 3
7 0 4
7 0 5
7 0 6
7 0 7
7 0 8
7 0 9
7 0 10
8 0 0
8 0 1
8 0 2
8 0 3
8 0 4
8 0 5
8 0 6
8 0 7
8 0 8
8 0 9
8 0 10
9 0 0
9 0 1
9 0 2
9 0 3
9 0 4
9 0 5
9 0 6
9 0 7
9 0 8
9 0 9
9 0 10
10 0 0
10 0 1
10 0 2
10 0 3
10 0 4
10 0 5
10 0 6
10 0 7
10 0 8
10 0 9
10 0 10
0 10 0
0 10 1
0 10 2
0 10 3
0 10 4
0 10 5
0 10 6
0 10 7
0 10 8
0 10 9
0 10 10
1 10 0
1 10 1
1 10 2
1 10 3
1 10 4
1 10 5
1 10 6
1 10 7
1 10 8
1 10 9
1 10 10
2 10 0
2 10 1
2 10 2
2 10 3
2 10 4
2 10 5
2 10 6
2 10 7
2 10 8
2 10 9
2 10 10
3 10 0
3 10 1
3 10 2
3 10 3
3 10 4
3 10 5
3 10 6
3 10 7
3 10 8
3 10 9
3 10 10
4 10 0
4 10 1
4 10 2
4 10 3
4 10 4
4 10 5
4 10 6
4 10 7
4 10 8
4 10 9
4 10 10
5 10 0
5 10 1
5 10 2
5 10 3
5 10 4
5 10 5
5 10 6
5 10 7
5 10 8
5 10 9
5 10 10
6 10 0
6 10 1
6 10 2
6 10 3
6 10 4
6 10 5
6 10 6
6 10 7
6 10 8
6 10 9
6 10 10
7 10 0
7 10 1
7 10 2
7 10 3
7 10 4
7 10 5
7 10 6
7 10 7
7 10 8
7 10 9
7 10 10
8 10 0
8 10 1
8 10 2
8 10 3
8 10 4
8 10 5
8 10 6
8 10 7
8 10 8
8 10 9
8 10 10
9 10 0
9 10 1
9 10 2
9 10 3
9 10 4
9 10 5
9 10 6
9 10 7
9 10 8
9 10 9
9 10 10
10 10 0
10 10 1
10 10 2
10 10 3
10 10 4
10 10 5
10 10 6
10 10 7
10 10 8
10 10 9
10 10 10
0 0 0
0 1 0
0 2 0
0 3 0
0 4 0
0 5 0
0 6 0
0 7 0
0 8 0
0 9 0
0 10 0
1 0 0
1 1 0
1 2 0
1 3 0
1 4 0
1 5 0
1 6 0
1 7 0
1 8 0
1 9 0
1 10 0
2 0 0
2 1 0
2 2 0
2 3 0
2 4 0
2 5 0
2 6 0
2 7 0
2 8 0
2 9 0
2 10 0
3 0 0
3 1 0
3 2 0
3 3 0
3 4 0
3 5 0
3 6 0
3 7 0
3 8 0
3 9 0
3 10 0
4 0 0
4 1 0
4 2 0
4 3 0
4 4 0
4 5 0
4 6 0
4 7 0
4 8 0
4 9 0
4 10 0
5 0 0
5 1 0
5 2 0
5 3 0
5 4 0
5 5 0
5 6 0
5 7 0
5 8 0
5 9 0
5 10 0
6 0 0
6 1 0
6 2 0
6 3 0
6 4 0
6 5 0
6 6 0
6 7 0
6 8 0
6 9 0
6 10 0
7 0 0
7 1 0
7 2 0
7 3 0
7 4 0
7 5 0
7 6 0
7 7 0
7 8 0
7 9 0
7 10 0
8 0 0
8 1 0
8 2 0
8 3 0
8 4 0
8 5 0
8 6 0
8 7 0
8 8 0
8 9 0
8 10 0
9 0 0
9 1 0
9 2 0
9 3 0
9 4 0
9 5 0
9 6 0
9 7 0
9 8 0
9 9 0
9 10 0
10 0 0
10 1 0
10 2 0
10 3 0
10 4 0
10 5 0
10 6 0
10 7 0
10 8 0
10 9 0
10 10 0
0 0 10
0 1 10
0 2 10
0 3 10
0 4 10
0 5 10
0 6 10
0 7 10
0 8 10
0 9 10
0 10 10
1 0 10
1 1 10
1 2 10
1 3 10
1 4 10
1 5 10
1 6 10
1 7 10
1 8 10
1 9 10
1 10 10
2 0 10
2 1 10
2 2 10
2 3 10
2 4 10
2 5 10
2 6 10
2 7 10
2 8 10
2 9 10
2 10 10
3 0 10
3 1 10
3 2 10
3 3 10
3 4 10
3 5 10
3 6 10
3 7 10
3 8 10
3 9 10
3 10 10
4 0 10
4 1 10
4 2 10
4 3 10
4 4 10
4 5 10
4 6 10
4 7 10
4 8 10
4 9 10
4 10 10
5 0 10
5 1 10
5 2 10
5 3 10
5 4 10
5 5 10
5 6 10
5 7 10
5 8 10
5 9 10
5 10 10
6 0 10
6 1 10
6 2 10
6 3 10
6 4 10
6 5 10
6 6 10
6 7 10
6 8 10
6 9 10
6 10 10
7 0 10
7 1 10
7 2 10
7 3 10
7 4 10
7 5 10
7 6 10
7 7 10
7 8 10
7 9 10
7 10 10
8 0 10
8 1 10
8 2 10
8 3 10
8 4 10
8 5 10
8 6 10
8 7 10
8 8 10
8 9 10
8 10 10
9 0 10
9 1 10
9 2 10
9 3 10
9 4 10
9 5 10
9 6 10
9 7 10
9 8 10
9 9 10
9 10 10
10 0 10
10 1 10
10 2 10
10 3 10
10 4 10
10 5 10
10 6 10
10 7 10
10 8 10
10 9 10
10 10 10
3 0 1 12
3 11 0  12
3 1 2 13
3 12 1  13
3 2 3 14
3 13 2  14
3 3 4 15
3 14 3  15
3 4 5 16
3 15 4  16
3 5 6 17
3 16 5  17
3 6 7 18
3 17 6  18
3 7 8 19
3 18 7  19
3 8 9 20
3 19 8  20
3 9 10 21
3 20 9  21
3 11 12 23
3 22 11  23
3 12 13 24
3 23 12  24
3 13 14 25
3 24 13  25
3 14 15 26
3 25 14  26
3 15 16 27
3 26 15  27
3 16 17 28
3 27 16  28
3 17 18 29
3 28 17  29
3 18 19 30
3 29 18  30
3 19 20 31
3 30 19  31
3 20 21 32
3 31 20  32
3 22 23 34
3 33 22  34
3 23 24 35
3 34 23  35
3 24 25 36
3 35 24  36
3 25 26 37
3 36 25  37
3 26 27 38
3 37 26  38
3 27 28 39
3 38 27  39
3 28 29 40
3 39 28  40
3 29 30 41
3 40 29  41
3 30 31 42
3 41 30  42
3 31 32 43
3 42 31  43
3 33 34 45
3 44 33  45
3 34 35 46
3 45 34  46
3 35 36 47
3 46 35  47
3 36 37 48
3 47 36  48
3 37 38 49
3 48 37  49
3 38 39 50
3 49 38  50
3 39 40 51
3 50 39  51
3 40 41 52
3 51 40  52
3 41 42 53
3 52 41  53
3 42 43 54
3 53 42  54
3 44 45 56
3 55 44  56
3 45 46 57
3 56 45  57
3 46 47 58
3 57 46  58
3 47 48 59
3 58 47  59
3 48 49 60
3 59 48  60
3 49 50 61
3 60 49  61
3 50 51 62
3 61 50  62
3 51 52 63
3 62 51  63
3 52 53 64
3 63 52  64
3 53 54 65
3 64 53  65
3 55 56 67
3 66 55  67
3 56 57 68
3 67 56  68
3 57 58 69
3 68 57  69
3 58 59 70
3 69 58  70
3 59 60 71
3 70 59  71
3 60 61 72
3 71 60  72
3 61 62 73
3 72 61  73
3 62 63 74
3 73 62  74
3 63 64 75
3 74 63  75
3 64 65 76
3 75 64  76
3 66 67 78
3 77 66  78
3 67 68 79
3 78 67  79
3 68 69 80
3 79 68  80
3 69 70 81
3 80 69  81
3 70 71 82
3 81 70  82
3 71 72 83
3 82 71  83
3 72 73 84
3 83 72  84
3 73 74 85
3 84 73  85
3 74 75 86
3 85 74  86
3 75 76 87
3 86 75  87
3 77 78 89
3 88 77  89
3 78 79 90
3 89 78  90
3 79 80 91
3 90 79  91
3 80 81 92
3 91 80  92
3 81 82 93
3 92 81  93
3 82 83 94
3 93 82  94
3 83 84 95
3 94 83  95
3 84 85 96
3 95 84  96
3 85 86 97
3 96 85  97
3 86 87 98
3 97 86  98
3 88 89 100
3 99 88  100
3 89 90 101
3 100 89  101
3 90 91 102
3 101 90  102
3 91 92 103
3 102 91  103
3 92 93 104
3 103 92  104
3 93 94 105
3 104 93  105
3 94 95 106
3 105 94  106
3 95 96 107
3 106 95  107
3 96 97 108
3 107 96  108
3 97 98 109
3 108 97  109
3 99 100 111
3 110 99  111
3 100 101 112
3 111 100  112
3 101 102 113
3 112 101  113
3 102 103 114
3 113 102  114
3 103 104 115
3 114 103  115
3 104 105 116
3 115 104  116
3 105 106 117
3 116 105  117
3 106 107 118
3 117 106  118
3 107 108 119
3 118 107  119
3 108 109 120
3 119 108  120
3 121 122 133
3 132 121  133
3 122 123 134
3 133 122  134
3 123 124 135
3 134 123  135
3 124 125 136
3 135 124  136
3 125 126 137
3 136 125  137
3 126 127 138
3 137 126  138
3 127 128 139
3 138 127  139
3 128 129 140
3 139 128  140
3 129 130 141
3 140 129  141
3 130 131 142
3 141 130  142
3 132 133 144
3 143 132  144
3 133 134 145
3 144 133  145
3 134 135 146
3 145 134  146
3 135 136 147
3 146 135  147
3 136 137 148
3 147 136  148
3 137 138 149
3 148 137  149
3 138 139 150
3 149 138  150
3 139 140 151
3 150 139  151
3 140 141 152
3 151 140  152
3 141 142 153
3 152 141  153
3 143 144 155
3 154 143  155
3 144 145 156
3 155 144  156
3 145 146 157
3 156 145  157
3 146 147 158
3 157 146  158
3 147 148 159
3 158 147  159
3 148 149 160
3 159 148  160
3 149 150 161
3 160 149  161
3 150 151 162
3 161 150  162
3 151 152 163
3 162 151  163
3 152 153 164
3 163 152  164
3 154 155 166
3 165 154  166
3 155 156 167
3 166 155  167
3 156 157 168
3 167 156  168
3 157 158 169
3 168 157  169
3 158 159 170
3 169 158  170
3 159 160 171
3 170 159  171
3 160 161 172
3 171 160  172
3 161 162 173
3 172 161  173
3 162 163 174
3 173 162  174
3 163 164 175
3 174 163  175
3 165 166 177
3 176 165  177
3 166 167 178
3 177 166  178
3 167 168 179
3 178 167  179
3 168 169 180
3 179 168  180
3 169 170 181
3 180 169  181
3 170 171 182
3 181 170  182
3 171 172 183
3 182 171  183
3 172 173 184
3 183 172  184
3 173 174 185
3 184 173  185
3 174 175 186
3 185 174  186
3 176 177 188
3 187 176  188
3 177 178 189
3 188 177  189
3 178 179 190
3 189 178  190
3 179 180 191
3 190 179  191
3 180 181 192
3 191 180  192
3 181 182 193
3 192 181  193
3 182 183 194
3 193 182  194
3 183 184 195
3 194 183  195
3 184 185 196
3 195 184  196
3 185 186 197
3 196 185  197
3 187 188 199
3 198 187  199
3 188 189 200
3 199 188  200
3 189 190 201
3 200 189  201
3 190 191 202
3 201 190  202
3 191 192 203
3 202 191  203
3 192 193 204
3 203 192  204
3 193 194 205
3 204 193  205
3 194 195 206
3 205 194  206
3 195 196 207
3 206 195  207
3 196 197 208
3 207 196  208
3 198 199 210
3 209 198  210
3 199 200 211
3 210 199  211
3 200 201 212
3 211 200  212
3 201 202 213
3 212 201  213
3 202 203 214
3 213 202  214
3 203 204 215
3 214 203  215
3 204 205 216
3 215 204  216
3 205 206 217
3 216 205  217
3 206 207 218
3 217 206  218
3 207 208 219
3 218 207  219
3 209 210 221
3 220 209  221
3 210 211 222
3 221 210  222
3 211 212 223
3 222 211  223
3 212 213 224
3 223 212  224
3 213 214 225
3 224 213  225
3 214 215 226
3 225 214  226
3 215 216 227
3 226 215  227
3 216 217 228
3 227 216  228
3 217 218 229
3 228 217  229
3 218 219 230
3 229 218  230
3 220 221 232
3 231 220  232
3 221 222 233
3 232 221  233
3 222 223 234
3 233 222  234
3 223 224 235
3 234 223  235
3 224 225 236
3 235 224  236
3 225 226 237
3 236 225  237
3 226 227 238
3 237 226  238
3 227 228 239
3 238 227  239
3 228 229 240
3 239 228  240
3 229 230 241
3 240 229  241
3 242 243 254
3 253 242  254
3 243 244 255
3 254 243  255
3 244 245 256
3 255 244  256
3 245 246 257
3 256 245  257
3 246 247 258
3 257 246  258
3 247 248 259
3 258 247  259
3 248 249 260
3 259 248  260
3 249 250 261
3 260 249  261
3 250 251 262
3 261 250  262
3 251 252 263
3 262 251  263
3 253 254 265
3 264 253  265
3 254 255 266
3 265 254  266
3 255 256 267
3 266 255  267
3 256 257 268
3 267 256  268
3 257 258 269
3 268 257  269
3 258 259 270
3 269 258  270
3 259 260 271
3 270 259  271
3 260 261 272
3 271 260  272
3 261 262 273
3 272 261  273
3 262 263 274
3 273 262  274
3 264 265 276
3 275 264  276
3 265 266 277
3 276 265  277
3 266 267 278
3 277 266  278
3 267 268 279
3 278 267  279
3 268 269 280
3 279 268  280
3 269 270 281
3 280 269  281
3 270 271 282
3 281 270  282
3 271 272 283
3 282 271  283
3 272 273 284
3 283 272  284
3 273 274 285
3 284 273  285
3 275 276 287
3 286 275  287
3 276 277 288
3 287 276  288
3 277 278 289
3 288 277  289
3 278 279 290
3 289 278  290
3 279 280 291
3 290 279  291
3 280 281 292
3 291 280  292
3 281 282 293
3 292 281  293
3 282 283 294
3 293 282  294
3 283 284 295
3 294 283  295
3 284 285 296
3 295 284  296
3 286 287 298
3 297 286  298
3 287 288 299
3 298 287  299
3 288 289 300
3 299 288  300
3 289 290 301
3 300 289  301
3 290 291 302
3 301 290  302
3 291 292 303
3 302 291  303
3 292 293 304
3 303 292  304
3 293 294 305
3 304 293  305
3 294 295 306
3 305 294  306
3 295 296 307
3 306 295  307
3 297 298 309
3 308 297  309
3 298 299 310
3 309 298  310
3 299 300 311
3 310 299  311
3 300 301 312
3 311 300  312
3 301 302 313
3 312 301  313
3 302 303 314
3 313 302  314
3 303 304 315
3 314 303  315
3 304 305 316
3 315 304  316
3 305 306 317
3 316 305  317
3 306 307 318
3 317 306  318
3 308 309 320
3 319 308  320
3 309 310 321
3 320 309  321
3 310 311 322
3 321 310  322
3 311 312 323
3 322 311  323
3 312 313 324
3 323 312  324
3 313 314 325
3 324 313  325
3 314 315 326
3 325 314  326
3 315 316 327
3 326 315  327
3 316 317 328
3 327 316  328
3 317 318 329
3 328 317  329
3 319 320 331
3 330 319  331
3 320 321 332
3 331 320  332
3 321 322 333
3 332 321  333
3 322 323 334
3 333 322  334
3 323 324 335
3 334 323  335
3 324 325 336
3 335 324  336
3 325 326 337
3 336 325  337
3 326 327 338
3 337 326  338
3 327 328 339
3 338 327  339
3 328 329 340
3 339 328  340
3 330 331 342
3 341 330  342
3 331 332 343
3 342 331  343
3 332 333 344
3 343 332  344
3 333 334 345
3 344 333  345
3 334 335 346
3 345 334  346
3 335 336 347
3 346 335  347
3 336 337 348
3 347 336  348
3 337 338 349
3 348 337  349
3 338 339 350
3 349 338  350
3 339 340 351
3 350 339  351
3 341 342 353
3 352 341  353
3 342 343 354
3 353 342  354
3 343 344 355
3 354 343  355
3 344 345 356
3 355 344  356
3 345 346 357
3 356 345  357
3 346 347 358
3 357 346  358
3 347 348 359
3 358 347  359
3 348 349 360
3 359 348  360
3 349 350 361
3 360 349  361
3 350 351 362
3 361 350  362
3 363 364 375
3 374 363  375
3 364 365 376
3 375 364  376
3 365 366 377
3 376 365  377
3 366 367 378
3 377 366  378
3 367 368 379
3 378 367  379
3 368 369 380
3 379 368  380
3 369 370 381
3 380 369  381
3 370 371 382
3 381 370  382
3 371 372 383
3 382 371  383
3 372 373 384
3 383 372  384
3 374 375 386
3 385 374  386
3 375 376 387
3 386 375  387
3 376 377 388
3 387 376  388
3 377 378 389
3 388 377  389
3 378 379 390
3 389 378  390
3 379 380 391
3 390 379  391
3 380 381 392
3 391 380  392
3 381 382 393
3 392 381  393
3 382 383 394
3 393 382  394
3 383 384 395
3 394 383  395
3 385 386 397
3 396 385  397
3 386 387 398
3 397 386  398
3 387 388 399
3 398 387  399
3 388 389 400
3 399 388  400
3 389 390 401
3 400 389  401
3 390 391 402
3 401 390  402
3 391 392 403
3 402 391  403
3 392 393 404
3 403 392  404
3 393 394 405
3 404 393  405
3 394 395 406
3 405 394  406
3 396 397 408
3 407 396  408
3 397 398 409
3 408 397  409
3 398 399 410
3 409 398  410
3 399 400 411
3 410 399  411
3 400 401 412
3 411 400  412
3 401 402 413
3 412 401  413
3 402 403 414
3 413 402  414
3 403 404 415
3 414 403  415
3 404 405 416
3 415 404  416
3 405 406 417
3 416 405  417
3 407 408 419
3 418 407  419
3 408 409 420
3 419 408  420
3 409 410 421
3 420 409  421
3 410 411 422
3 421 410  422
3 411 412 423
3 422 411  423
3 412 413 424
3 423 412  424
3 413 414 425
3 424 413  425
3 414 415 426
3 425 414  426
3 415 416 427
3 426 415  427
3 416 417 428
3 427 416  428
3 418 419 430
3 429 418  430
3 419 420 431
3 430 419  431
3 420 421 432
3 431 420  432
3 421 422 433
3 432 421  433
3 422 423 434
3 433 422  434
3 423 424 435
3 434 423  435
3 424 425 436
3 435 424  436
3 425 426 437
3 436 425  437
3 426 427 438
3 437 426  438
3 427 428 439
3 438 427  439
3 429 430 441
3 440 429  441
3 430 431 442
3 441 430  442
3 431 432 443
3 442 431  443
3 432 433 444
3 443 432  444
3 433 434 445
3 444 433  445
3 434 435 446
3 445 434  446
3 435 436 447
3 446 435  447
3 436 437 448
3 447 436  448
3 437 438 449
3 448 437  449
3 438 439 450
3 449 438  450
3 440 441 452
3 451 440  452
3 441 442 453
3 452 441  453
3 442 443 454
3 453 442  454
3 443 444 455
3 454 443  455
3 444 445 456
3 455 444  456
3 445 446 457
3 456 445  457
3 446 447 458
3 457 446  458
3 447 448 459
3 458 447  459
3 448 449 460
3 459 448  460
3 449 450 461
3 460 449  461
3 451 452 463
3 462 451  463
3 452 453 464
3 463 452  464
3 453 454 465
3 464 453  465
3 454 455 466
3 465 454  466
3 455 456 467
3 466 455  467
3 456 457 468
3 467 456  468
3 457 458 469
3 468 457  469
3 458 459 470
3 469 458  470
3 459 460 471
3 470 459  471
3 460 461 472
3 471 460  472
3 462 463 474
3 473 462  474
3 463 464 475
3 474 463  475
3 464 465 476
3 475 464  476
3 465 466 477
3 476 465  477
3 466 467 478
3 477 466  478
3 467 468 479
3 478 467  479
3 468 469 480
3 479 468  480
3 469 470 481
3 480 469  481
3 470 471 482
3 481 470  482
3 471 472 483
3 482 471  483
3 484 485 496
3 495 484  496
3 485 486 497
3 496 485  497
3 486 487 498
3 497 486  498
3 487 488 499
3 498 487  499
3 488 489 500
3 499 488  500
3 489 490 501
3 500 489  501
3 490 491 502
3 501 490  502
3 491 492 503
3 502 491  503
3 492 493 504
3 503 492  504
3 493 494 505
3 504 493  505
3 495 496 507
3 506 495  507
3 496 497 508
3 507 496  508
3 497 498 509
3 508 497  509
3 498 499 510
3 509 498  510
3 499 500 511
3 510 499  511
3 500 501 512
3 511 500  512
3 501 502 513
3 512 501  513
3 502 503 514
3 513 502  514
3 503 504 515
3 514 503  515
3 504 505 516
3 515 504  516
3 506 507 518
3 517 506  518
3 507 508 519
3 518 507  519
3 508 509 520
3 519 508  520
3 509 510 521
3 520 509  521
3 510 511 522
3 521 510  522
3 511 512 523
3 522 511  523
3 512 513 524
3 523 512  524
3 513 514 525
3 524 513  525
3 514 515 526
3 525 514  526
3 515 516 527
3 526 515  527
3 517 518 529
3 528 517  529
3 518 519 530
3 529 518  530
3 519 520 531
3 530 519  531
3 520 521 532
3 531 520  532
3 521 522 533
3 532 521  533
3 522 523 534
3 533 522  534
3 523 524 535
3 534 523  535
3 524 525 536
3 535 524  536
3 525 526 537
3 536 525  537
3 526 527 538
3 537 526  538
3 528 529 540
3 539 528  540
3 529 530 541
3 540 529  541
3 530 531 542
3 541 530  542
3 531 532 543
3 542 531  543
3 532 533 544
3 543 532  544
3 533 534 545
3 544 533  545
3 534 535 546
3 545 534  546
3 535 536 547
3 546 535  547
3 536 537 548
3 547 536  548
3 537 538 549
3 548 537  549
3 539 540 551
3 550 539  551
3 540 541 552
3 551 540  552
3 541 542 553
3 552 541  553
3 542 543 554
3 553 542  554
3 543 544 555
3 554 543  555
3 544 545 556
3 555 544  556
3 545 546 557
3 556 545  557
3 546 547 558
3 557 546  558
3 547 548 559
3 558 547  559
3 548 549 560
3 559 548  560
3 550 551 562
3 561 550  562
3 551 552 563
3 562 551  563
3 552 553 564
3 563 552  564
3 553 554 565
3 564 553  565
3 554 555 566
3 565 554  566
3 555 556 567
3 566 555  567
3 556 557 568
3 567 556  568
3 557 558 569
3 568 557  569
3 558 559 570
3 569 558  570
3 559 560 571
3 570 559  571
3 561 562 573
3 572 561  573
3 562 563 574
3 573 562  574
3 563 564 575
3 574 563  575
3 564 565 576
3 575 564  576
3 565 566 577
3 576 565  577
3 566 567 578
3 577 566  578
3 567 568 579
3 578 567  579
3 568 569 580
3 579 568  580
3 569 570 581
3 580 569  581
3 570 571 582
3 581 570  582
3 572 573 584
3 583 572  584
3 573 574 585
3 584 573  585
3 574 575 586
3 585 574  586
3 575 576 587
3 586 575  587
3 576 577 588
3 587 576  588
3 577 578 589
3 588 577  589
3 578 579 590
3 589 578  590
3 579 580 591
3 590 579  591
3 580 581 592
3 591 580  592
3 581 582 593
3 592 581  593
3 583 584 595
3 594 583  595
3 584 585 596
3 595 584  596
3 585 586 597
3 596 585  597
3 586 587 598
3 597 586  598
3 587 588 599
3 598 587  599
3 588 589 600
3 599 588  600
3 589 590 601
3 600 589  601
3 590 591 602
3 601 590  602
3 591 592 603
3 602 591  603
3 592 593 604
3 603 592  604
3 605 606 617
3 616 605  617
3 606 607 618
3 617 606  618
3 607 608 619
3 618 607  619
3 608 609 620
3 619 608  620
3 609 610 621
3 620 609  621
3 610 611 622
3 621 610  622
3 611 612 623
3 622 611  623
3 612 613 624
3 623 612  624
3 613 614 625
3 624 613  625
3 614 615 626
3 625 614  626
3 616 617 628
3 627 616  628
3 617 618 629
3 628 617  629
3 618 619 630
3 629 618  630
3 619 620 631
3 630 619  631
3 620 621 632
3 631 620  632
3 621 622 633
3 632 621  633
3 622 623 634
3 633 622  634
3 623 624 635
3 634 623  635
3 624 625 636
3 635 624  636
3 625 626 637
3 636 625  637
3 627 628 639
3 638 627  639
3 628 629 640
3 639 628  640
3 629 630 641
3 640 629  641
3 630 631 642
3 641 630  642
3 631 632 643
3 642 631  643
3 632 633 644
3 643 632  644
3 633 634 645
3 644 633  645
3 634 635 646
3 645 634  646
3 635 636 647
3 646 635  647
3 636 637 648
3 647 636  648
3 638 639 650
3 649 638  650
3 639 640 651
3 650 639  651
3 640 641 652
3 651 640  652
3 641 642 653
3 652 641  653
3 642 643 654
3 653 642  654
3 643 644 655
3 654 643  655
3 644 645 656
3 655 644  656
3 645 646 657
3 656 645  657
3 646 647 658
3 657 646  658
3 647 648 659
3 658 647  659
3 649 650 661
3 660 649  661
3 650 651 662
3 661 650  662
3 651 652 663
3 662 651  663
3 652 653 664
3 663 652  664
3 653 654 665
3 664 653  665
3 654 655 666
3 665 654  666
3 655 656 667
3 666 655  667
3 656 657 668
3 667 656  668
3 657 658 669
3 668 657  669
3 658 659 670
3 669 658  670
3 660 661 672
3 671 660  672
3 661 662 673
3 672 661  673
3 662 663 674
3 673 662  674
3 663 664 675
3 674 663  675
3 664 665 676
3 675 664  676
3 665 666 677
3 676 665  677
3 666 667 678
3 677 666  678
3 667 668 679
3 678 667  679
3 668 669 680
3 679 668  680
3 669 670 681
3 680 669  681
3 671 672 683
3 682 671  683
3 672 673 684
3 683 672  684
3 673 674 685
3 684 673  685
3 674 675 686
3 685 674  686
3 675 676 687
3 686 675  687
3 676 677 688
3 687 676  688
3 677 678 689
3 688 677  689
3 678 679 690
3 689 678  690
3 679 680 691
3 690 679  691
3 680 681 692
3 691 680  692
3 682 683 694
3 693 682  694
3 683 684 695
3 694 683  695
3 684 685 696
3 695 684  696
3 685 686 697
3 696 685  697
3 686 687 698
3 697 686  698
3 687 688 699
3 698 687  699
3 688 689 700
3 699 688  700
3 689 690 701
3 700 689  701
3 690 691 702
3 701 690  702
3 691 692 703
3 702 691  703
3 693 694 705
3 704 693  705
3 694 695 706
3 705 694  706
3 695 696 707
3 706 695  707
3 696 697 708
3 707 696  708
3 697 698 709
3 708 697  709
3 698 699 710
3 709 698  710
3 699 700 711
3 710 699  711
3 700 701 712
3 711 700  712
3 701 702 713
3 712 701  713
3 702 703 714
3 713 702  714
3 704 705 716
3 715 704  716
3 705 706 717
3 716 705  717
3 706 707 718
3 717 706  718
3 707 708 719
3 718 707  719
3 708 709 720
3 719 708  720
3 709 710 721
3 720 709  721
3 710 711 722
3 721 710  722
3 711 712 723
3 722 711  723
3 712 713 724
3 723 712  724
3 713 714 725
3 724 713  725
